<svg width="402" height="144" viewBox="0 0 402 144" fill="none" xmlns="http://www.w3.org/2000/svg">
<path d="M196.702 56.536V60.92H187.55V65.656H194.398V69.912H187.55V79H182.078V56.536H196.702ZM216.41 69.784C216.41 70.296 216.378 70.8293 216.314 71.384H203.93C204.015 72.4933 204.367 73.3467 204.986 73.944C205.626 74.52 206.404 74.808 207.322 74.808C208.687 74.808 209.636 74.232 210.17 73.08H215.994C215.695 74.2533 215.151 75.3093 214.362 76.248C213.594 77.1867 212.623 77.9227 211.45 78.456C210.276 78.9893 208.964 79.256 207.514 79.256C205.764 79.256 204.207 78.8827 202.842 78.136C201.476 77.3893 200.41 76.3227 199.642 74.936C198.874 73.5493 198.49 71.928 198.49 70.072C198.49 68.216 198.863 66.5947 199.61 65.208C200.378 63.8213 201.444 62.7547 202.81 62.008C204.175 61.2613 205.743 60.888 207.514 60.888C209.242 60.888 210.778 61.2507 212.122 61.976C213.466 62.7013 214.511 63.736 215.258 65.08C216.026 66.424 216.41 67.992 216.41 69.784ZM210.81 68.344C210.81 67.4053 210.49 66.6587 209.85 66.104C209.21 65.5493 208.41 65.272 207.45 65.272C206.532 65.272 205.754 65.5387 205.114 66.072C204.495 66.6053 204.111 67.3627 203.962 68.344H210.81ZM230.177 60.952C232.267 60.952 233.931 61.6347 235.169 63C236.427 64.344 237.057 66.2 237.057 68.568V79H231.617V69.304C231.617 68.1093 231.307 67.1813 230.689 66.52C230.07 65.8587 229.238 65.528 228.193 65.528C227.147 65.528 226.315 65.8587 225.697 66.52C225.078 67.1813 224.769 68.1093 224.769 69.304V79H219.297V61.144H224.769V63.512C225.323 62.7227 226.07 62.104 227.009 61.656C227.947 61.1867 229.003 60.952 230.177 60.952ZM257.691 69.784C257.691 70.296 257.659 70.8293 257.595 71.384H245.211C245.296 72.4933 245.648 73.3467 246.267 73.944C246.907 74.52 247.686 74.808 248.603 74.808C249.968 74.808 250.918 74.232 251.451 73.08H257.275C256.976 74.2533 256.432 75.3093 255.643 76.248C254.875 77.1867 253.904 77.9227 252.731 78.456C251.558 78.9893 250.246 79.256 248.795 79.256C247.046 79.256 245.488 78.8827 244.123 78.136C242.758 77.3893 241.691 76.3227 240.923 74.936C240.155 73.5493 239.771 71.928 239.771 70.072C239.771 68.216 240.144 66.5947 240.891 65.208C241.659 63.8213 242.726 62.7547 244.091 62.008C245.456 61.2613 247.024 60.888 248.795 60.888C250.523 60.888 252.059 61.2507 253.403 61.976C254.747 62.7013 255.792 63.736 256.539 65.08C257.307 66.424 257.691 67.992 257.691 69.784ZM252.091 68.344C252.091 67.4053 251.771 66.6587 251.131 66.104C250.491 65.5493 249.691 65.272 248.731 65.272C247.814 65.272 247.035 65.5387 246.395 66.072C245.776 66.6053 245.392 67.3627 245.243 68.344H252.091ZM259.49 70.072C259.49 68.216 259.863 66.5947 260.61 65.208C261.378 63.8213 262.434 62.7547 263.778 62.008C265.143 61.2613 266.7 60.888 268.45 60.888C270.69 60.888 272.556 61.4747 274.05 62.648C275.564 63.8213 276.556 65.4747 277.026 67.608H271.202C270.711 66.2427 269.762 65.56 268.354 65.56C267.351 65.56 266.551 65.9547 265.954 66.744C265.356 67.512 265.058 68.6213 265.058 70.072C265.058 71.5227 265.356 72.6427 265.954 73.432C266.551 74.2 267.351 74.584 268.354 74.584C269.762 74.584 270.711 73.9013 271.202 72.536H277.026C276.556 74.6267 275.564 76.2693 274.05 77.464C272.535 78.6587 270.668 79.256 268.45 79.256C266.7 79.256 265.143 78.8827 263.778 78.136C262.434 77.3893 261.378 76.3227 260.61 74.936C259.863 73.5493 259.49 71.928 259.49 70.072ZM288.081 79.256C286.331 79.256 284.753 78.8827 283.345 78.136C281.958 77.3893 280.859 76.3227 280.049 74.936C279.259 73.5493 278.865 71.928 278.865 70.072C278.865 68.2373 279.27 66.6267 280.081 65.24C280.891 63.832 282.001 62.7547 283.409 62.008C284.817 61.2613 286.395 60.888 288.145 60.888C289.894 60.888 291.473 61.2613 292.881 62.008C294.289 62.7547 295.398 63.832 296.209 65.24C297.019 66.6267 297.425 68.2373 297.425 70.072C297.425 71.9067 297.009 73.528 296.177 74.936C295.366 76.3227 294.246 77.3893 292.817 78.136C291.409 78.8827 289.83 79.256 288.081 79.256ZM288.081 74.52C289.126 74.52 290.011 74.136 290.737 73.368C291.483 72.6 291.857 71.5013 291.857 70.072C291.857 68.6427 291.494 67.544 290.769 66.776C290.065 66.008 289.19 65.624 288.145 65.624C287.078 65.624 286.193 66.008 285.489 66.776C284.785 67.5227 284.433 68.6213 284.433 70.072C284.433 71.5013 284.774 72.6 285.457 73.368C286.161 74.136 287.035 74.52 288.081 74.52ZM321.915 56.536V57.752H315.515V79H314.075V57.752H307.675V56.536H321.915ZM324.447 70.296C324.447 68.504 324.799 66.936 325.503 65.592C326.228 64.248 327.22 63.2133 328.479 62.488C329.759 61.7627 331.209 61.4 332.831 61.4C334.665 61.4 336.223 61.848 337.503 62.744C338.783 63.64 339.679 64.7813 340.191 66.168V61.624H341.631V79H340.191V74.424C339.679 75.832 338.772 76.9947 337.471 77.912C336.191 78.808 334.644 79.256 332.831 79.256C331.209 79.256 329.759 78.8933 328.479 78.168C327.22 77.4213 326.228 76.376 325.503 75.032C324.799 73.6667 324.447 72.088 324.447 70.296ZM340.191 70.296C340.191 68.7813 339.871 67.448 339.231 66.296C338.612 65.1227 337.759 64.2267 336.671 63.608C335.583 62.968 334.367 62.648 333.023 62.648C331.615 62.648 330.377 62.9573 329.311 63.576C328.244 64.1733 327.412 65.048 326.815 66.2C326.217 67.352 325.919 68.7173 325.919 70.296C325.919 71.8747 326.217 73.24 326.815 74.392C327.412 75.544 328.244 76.4293 329.311 77.048C330.399 77.6667 331.636 77.976 333.023 77.976C334.367 77.976 335.583 77.6667 336.671 77.048C337.78 76.408 338.644 75.512 339.263 74.36C339.881 73.1867 340.191 71.832 340.191 70.296ZM348.314 55.32V79H346.874V55.32H348.314ZM369.241 69.144C369.241 69.912 369.219 70.488 369.177 70.872H354.169C354.211 72.4293 354.553 73.7413 355.193 74.808C355.833 75.8747 356.675 76.6747 357.721 77.208C358.766 77.7413 359.907 78.008 361.145 78.008C362.851 78.008 364.281 77.592 365.433 76.76C366.585 75.9067 367.31 74.7547 367.609 73.304H369.113C368.771 75.0747 367.897 76.5147 366.489 77.624C365.081 78.712 363.299 79.256 361.145 79.256C359.523 79.256 358.073 78.8933 356.793 78.168C355.513 77.4427 354.51 76.408 353.785 75.064C353.059 73.6987 352.697 72.1093 352.697 70.296C352.697 68.4827 353.049 66.904 353.753 65.56C354.478 64.216 355.481 63.192 356.761 62.488C358.041 61.7627 359.502 61.4 361.145 61.4C362.809 61.4 364.249 61.7627 365.465 62.488C366.702 63.192 367.641 64.1413 368.281 65.336C368.921 66.5093 369.241 67.7787 369.241 69.144ZM367.801 69.688C367.865 68.152 367.587 66.8507 366.969 65.784C366.371 64.7173 365.55 63.928 364.505 63.416C363.459 62.8827 362.329 62.616 361.113 62.616C359.897 62.616 358.766 62.8827 357.721 63.416C356.697 63.928 355.854 64.7173 355.193 65.784C354.553 66.8507 354.211 68.152 354.169 69.688H367.801ZM381.433 61.272C383.502 61.272 385.187 61.912 386.489 63.192C387.79 64.4507 388.441 66.328 388.441 68.824V79H387.033V68.92C387.033 66.8507 386.51 65.272 385.465 64.184C384.419 63.0747 383.001 62.52 381.209 62.52C379.331 62.52 377.827 63.1173 376.697 64.312C375.587 65.5067 375.033 67.2773 375.033 69.624V79H373.593V61.624H375.033V65.304C375.523 64.0027 376.334 63.0107 377.465 62.328C378.617 61.624 379.939 61.272 381.433 61.272ZM395.674 62.872V74.36C395.674 75.64 395.909 76.5253 396.378 77.016C396.848 77.4853 397.68 77.72 398.874 77.72H400.826V79H398.65C397.136 79 396.016 78.648 395.29 77.944C394.586 77.2187 394.234 76.024 394.234 74.36V62.872H391.61V61.624H394.234V57.208H395.674V61.624H400.826V62.872H395.674ZM287.526 96.6C287.771 95.896 288.214 95.32 288.854 94.872C289.505 94.424 290.289 94.2 291.206 94.2C292.017 94.2 292.737 94.3813 293.366 94.744C294.006 95.1067 294.502 95.624 294.854 96.296C295.217 96.968 295.398 97.752 295.398 98.648C295.398 99.544 295.217 100.333 294.854 101.016C294.502 101.688 294.006 102.211 293.366 102.584C292.737 102.947 292.017 103.128 291.206 103.128C290.299 103.128 289.521 102.904 288.87 102.456C288.23 101.997 287.782 101.421 287.526 100.728V107.096H286.806V94.312H287.526V96.6ZM294.662 98.648C294.662 97.8587 294.513 97.176 294.214 96.6C293.915 96.024 293.494 95.5867 292.95 95.288C292.417 94.9787 291.798 94.824 291.094 94.824C290.422 94.824 289.814 94.984 289.27 95.304C288.726 95.6133 288.299 96.0613 287.99 96.648C287.681 97.224 287.526 97.8907 287.526 98.648C287.526 99.416 287.681 100.093 287.99 100.68C288.299 101.256 288.726 101.704 289.27 102.024C289.814 102.333 290.422 102.488 291.094 102.488C291.798 102.488 292.417 102.333 292.95 102.024C293.494 101.715 293.915 101.272 294.214 100.696C294.513 100.12 294.662 99.4373 294.662 98.648ZM301.396 103.128C300.585 103.128 299.854 102.947 299.204 102.584C298.553 102.221 298.041 101.704 297.668 101.032C297.305 100.349 297.124 99.5547 297.124 98.648C297.124 97.752 297.31 96.968 297.684 96.296C298.057 95.6133 298.569 95.096 299.22 94.744C299.881 94.3813 300.617 94.2 301.428 94.2C302.238 94.2 302.969 94.3813 303.62 94.744C304.27 95.096 304.777 95.608 305.14 96.28C305.513 96.952 305.7 97.7413 305.7 98.648C305.7 99.5547 305.513 100.349 305.14 101.032C304.766 101.704 304.249 102.221 303.588 102.584C302.937 102.947 302.206 103.128 301.396 103.128ZM301.396 102.488C302.025 102.488 302.612 102.349 303.156 102.072C303.71 101.784 304.153 101.352 304.484 100.776C304.814 100.2 304.98 99.4907 304.98 98.648C304.98 97.816 304.814 97.112 304.484 96.536C304.153 95.96 303.716 95.5333 303.172 95.256C302.628 94.968 302.041 94.824 301.412 94.824C300.782 94.824 300.196 94.968 299.652 95.256C299.118 95.5333 298.686 95.96 298.356 96.536C298.025 97.112 297.86 97.816 297.86 98.648C297.86 99.4907 298.02 100.2 298.34 100.776C298.67 101.352 299.102 101.784 299.636 102.072C300.18 102.349 300.766 102.488 301.396 102.488ZM319.244 94.312L316.508 103H315.82L313.052 95.304L310.268 103H309.58L306.844 94.312H307.596L309.932 102.184L312.716 94.312H313.404L316.172 102.152L318.508 94.312H319.244ZM328.646 98.072C328.646 98.456 328.635 98.744 328.614 98.936H321.11C321.131 99.7147 321.302 100.371 321.622 100.904C321.942 101.437 322.363 101.837 322.886 102.104C323.408 102.371 323.979 102.504 324.598 102.504C325.451 102.504 326.166 102.296 326.742 101.88C327.318 101.453 327.68 100.877 327.83 100.152H328.582C328.411 101.037 327.974 101.757 327.27 102.312C326.566 102.856 325.675 103.128 324.598 103.128C323.787 103.128 323.062 102.947 322.422 102.584C321.782 102.221 321.28 101.704 320.918 101.032C320.555 100.349 320.374 99.5547 320.374 98.648C320.374 97.7413 320.55 96.952 320.902 96.28C321.264 95.608 321.766 95.096 322.406 94.744C323.046 94.3813 323.776 94.2 324.598 94.2C325.43 94.2 326.15 94.3813 326.758 94.744C327.376 95.096 327.846 95.5707 328.166 96.168C328.486 96.7547 328.646 97.3893 328.646 98.072ZM327.926 98.344C327.958 97.576 327.819 96.9253 327.51 96.392C327.211 95.8587 326.8 95.464 326.278 95.208C325.755 94.9413 325.19 94.808 324.582 94.808C323.974 94.808 323.408 94.9413 322.886 95.208C322.374 95.464 321.952 95.8587 321.622 96.392C321.302 96.9253 321.131 97.576 321.11 98.344H327.926ZM331.542 96.104C331.755 95.464 332.134 94.9787 332.678 94.648C333.222 94.3067 333.915 94.136 334.758 94.136V94.888H334.518C333.664 94.888 332.955 95.1333 332.39 95.624C331.824 96.104 331.542 96.8933 331.542 97.992V103H330.822V94.312H331.542V96.104ZM344.24 98.072C344.24 98.456 344.229 98.744 344.208 98.936H336.704C336.725 99.7147 336.896 100.371 337.216 100.904C337.536 101.437 337.957 101.837 338.48 102.104C339.002 102.371 339.573 102.504 340.192 102.504C341.045 102.504 341.76 102.296 342.336 101.88C342.912 101.453 343.274 100.877 343.424 100.152H344.176C344.005 101.037 343.568 101.757 342.864 102.312C342.16 102.856 341.269 103.128 340.192 103.128C339.381 103.128 338.656 102.947 338.016 102.584C337.376 102.221 336.874 101.704 336.512 101.032C336.149 100.349 335.968 99.5547 335.968 98.648C335.968 97.7413 336.144 96.952 336.496 96.28C336.858 95.608 337.36 95.096 338 94.744C338.64 94.3813 339.37 94.2 340.192 94.2C341.024 94.2 341.744 94.3813 342.352 94.744C342.97 95.096 343.44 95.5707 343.76 96.168C344.08 96.7547 344.24 97.3893 344.24 98.072ZM343.52 98.344C343.552 97.576 343.413 96.9253 343.104 96.392C342.805 95.8587 342.394 95.464 341.872 95.208C341.349 94.9413 340.784 94.808 340.176 94.808C339.568 94.808 339.002 94.9413 338.48 95.208C337.968 95.464 337.546 95.8587 337.216 96.392C336.896 96.9253 336.725 97.576 336.704 98.344H343.52ZM345.968 98.648C345.968 97.752 346.144 96.968 346.496 96.296C346.858 95.624 347.354 95.1067 347.984 94.744C348.624 94.3813 349.349 94.2 350.16 94.2C351.045 94.2 351.813 94.424 352.464 94.872C353.114 95.3093 353.573 95.88 353.84 96.584V91.16H354.56V103H353.84V100.696C353.584 101.411 353.136 101.997 352.496 102.456C351.856 102.904 351.077 103.128 350.16 103.128C349.349 103.128 348.624 102.947 347.984 102.584C347.354 102.211 346.858 101.688 346.496 101.016C346.144 100.333 345.968 99.544 345.968 98.648ZM353.84 98.648C353.84 97.8907 353.68 97.224 353.36 96.648C353.05 96.0613 352.624 95.6133 352.08 95.304C351.536 94.984 350.928 94.824 350.256 94.824C349.552 94.824 348.933 94.9787 348.4 95.288C347.866 95.5867 347.45 96.024 347.152 96.6C346.853 97.176 346.704 97.8587 346.704 98.648C346.704 99.4373 346.853 100.12 347.152 100.696C347.45 101.272 347.866 101.715 348.4 102.024C348.944 102.333 349.562 102.488 350.256 102.488C350.928 102.488 351.536 102.333 352.08 102.024C352.634 101.704 353.066 101.256 353.376 100.68C353.685 100.093 353.84 99.416 353.84 98.648ZM362.29 97C362.54 96.34 362.965 95.8 363.565 95.38C364.165 94.96 364.89 94.75 365.74 94.75C366.5 94.75 367.175 94.92 367.765 95.26C368.365 95.6 368.83 96.085 369.16 96.715C369.5 97.345 369.67 98.08 369.67 98.92C369.67 99.76 369.5 100.5 369.16 101.14C368.83 101.77 368.365 102.26 367.765 102.61C367.175 102.95 366.5 103.12 365.74 103.12C364.89 103.12 364.16 102.91 363.55 102.49C362.95 102.07 362.53 101.53 362.29 100.87V103H361.615V91.9H362.29V97ZM368.98 98.92C368.98 98.18 368.84 97.54 368.56 97C368.28 96.46 367.885 96.05 367.375 95.77C366.875 95.48 366.295 95.335 365.635 95.335C365.005 95.335 364.435 95.485 363.925 95.785C363.415 96.075 363.015 96.495 362.725 97.045C362.435 97.585 362.29 98.21 362.29 98.92C362.29 99.64 362.435 100.275 362.725 100.825C363.015 101.365 363.415 101.785 363.925 102.085C364.435 102.375 365.005 102.52 365.635 102.52C366.295 102.52 366.875 102.375 367.375 102.085C367.885 101.795 368.28 101.38 368.56 100.84C368.84 100.3 368.98 99.66 368.98 98.92ZM378.068 94.855L373.328 106.825H372.638L374.153 103L370.733 94.855H371.468L374.528 102.25L377.378 94.855H378.068ZM386.337 93.96V96.232H390.001V98.344H386.337V100.808H390.481V103H383.601V91.768H390.481V93.96H386.337ZM401.89 91.768L398.002 99.288V103H395.266V99.288L391.378 91.768H394.482L396.658 96.472L398.818 91.768H401.89Z" fill="white"/>
<g filter="url(#filter0_d_660_307)">
<path d="M101.93 22.5073L61.1026 135.998L20.287 22.5189C25.2552 28.5331 31.4909 33.3749 38.5483 36.6984C45.6058 40.0218 53.3103 41.7445 61.1111 41.7435C68.9118 41.7424 76.6159 40.0174 83.6725 36.692C90.7289 33.3665 96.9633 28.5229 101.93 22.5073Z" fill="url(#paint0_linear_660_307)"/>
<g style="mix-blend-mode:multiply" opacity="0.08">
<g style="mix-blend-mode:multiply" opacity="0.08">
<path d="M101.93 22.5073L61.1026 135.998L20.287 22.5189C25.2474 28.5399 31.4804 33.3867 38.5378 36.7108C45.5952 40.035 53.3015 41.7536 61.1026 41.7434C46.3329 41.7434 38.187 39.9692 33.7452 38.2167L61.1026 127.958L89.0508 37.9731C84.7589 39.7948 76.5439 41.7434 61.1026 41.7434C68.9064 41.7528 76.6152 40.0327 83.6746 36.7064C90.7339 33.3804 96.9685 28.5311 101.93 22.5073Z" fill="black"/>
</g>
</g>
<path d="M110.653 68.5693L61.1017 135.999L64.6514 126.136C64.6644 126.111 64.6722 126.084 64.6745 126.056L101.929 22.5077L103.181 19.004L109.701 0.893554L109.979 0.128276L110.027 0L110.05 0.144131L110.224 0.990118L111.199 5.96814L115.015 25.3555C115.017 25.41 115.025 25.464 115.038 25.5169L117.488 37.9432C117.919 40.122 118.156 42.3349 118.196 44.5556C118.414 53.1751 115.76 61.6226 110.653 68.5693Z" fill="url(#paint1_linear_660_307)"/>
<g style="mix-blend-mode:screen" opacity="0.25">
<g style="mix-blend-mode:screen" opacity="0.25">
<path d="M114.098 32.7175L68.6876 121.751L104.109 23.2962L105.361 19.781L109.363 8.68359L114.098 32.7175Z" fill="white"/>
</g>
</g>
<g style="mix-blend-mode:screen" opacity="0.3">
<g style="mix-blend-mode:screen" opacity="0.3">
<path d="M115.038 25.5126C114.087 21.2898 113.164 17.0555 112.254 12.8082C111.454 9.16619 110.668 5.5228 109.91 1.86785L105.01 15.9991L99.418 31.8007L93.8145 47.5908C91.9582 52.8585 90.0082 58.0916 88.1058 63.3463L82.3783 79.0902C80.4873 84.3464 78.4869 89.5665 76.5542 94.7996C74.5826 100.031 72.663 105.276 70.6612 110.486C68.6593 115.696 66.6935 120.939 64.6512 126.136C64.6641 126.111 64.672 126.084 64.6743 126.056L101.929 22.5076L103.181 19.004L109.701 0.893554C109.643 0.626927 109.597 0.36031 109.54 0.0936832L109.979 0.128276L110.027 0L110.05 0.144131L110.502 0.178724L110.224 0.990117L111.199 5.96814L115.015 25.3555C115.017 25.4086 115.025 25.4612 115.038 25.5126Z" fill="white"/>
</g>
</g>
<g style="mix-blend-mode:multiply" opacity="0.2">
<g style="mix-blend-mode:multiply" opacity="0.2">
<path d="M110.653 68.569L61.1017 135.998C63.0156 133.155 64.9757 130.336 66.9257 127.517C68.8757 124.698 70.8588 121.896 72.8347 119.106L78.787 110.718L84.7969 102.376C88.8223 96.8416 92.8678 91.2957 96.9436 85.8018L103.07 77.5536C105.134 74.8153 107.176 72.0654 109.268 69.3386L109.279 69.3156L109.291 69.304C109.999 68.4448 110.657 67.5459 111.264 66.6118C111.879 65.6606 112.458 64.6979 112.993 63.7005C113.528 62.7032 114.026 61.6929 114.491 60.661L115.141 59.0944C115.361 58.5726 115.534 58.0381 115.731 57.5092C115.929 56.9802 116.115 56.4411 116.278 55.8963C116.44 55.3515 116.625 54.8184 116.765 54.2722L117.17 52.6133C117.311 52.0626 117.423 51.5052 117.507 50.9429C117.599 50.3852 117.739 49.8287 117.795 49.2609L117.993 47.566C118.121 46.5687 118.144 45.5713 118.202 44.561C118.417 53.1794 115.761 61.6246 110.653 68.569Z" fill="black"/>
</g>
</g>
<path d="M11.5559 68.5693L61.1082 136L57.557 126.138C57.5441 126.113 57.5361 126.085 57.534 126.057L20.2811 22.5077L19.0273 19.004L12.5071 0.893554L12.2289 0.128276L12.1828 0L12.1597 0.144131L11.9853 0.990118L11.0111 5.96814L7.19328 25.3512C7.19126 25.4057 7.18352 25.4597 7.17021 25.5126L4.72012 37.9389C4.29007 40.1179 4.05375 42.3306 4.01393 44.5512C3.7946 53.1721 6.44772 61.6213 11.5559 68.5693Z" fill="url(#paint2_linear_660_307)"/>
<g style="mix-blend-mode:screen" opacity="0.25">
<g style="mix-blend-mode:screen" opacity="0.25">
<path d="M8.10974 32.7175L53.5199 121.751L18.0989 23.2977L16.8465 19.7825L12.8442 8.68506L8.10974 32.7175Z" fill="white"/>
</g>
</g>
<g style="mix-blend-mode:screen" opacity="0.3">
<g style="mix-blend-mode:screen" opacity="0.3">
<path d="M7.16956 25.5126C8.12077 21.2898 9.04314 17.0555 9.95399 12.8082C10.7553 9.16668 11.5365 5.51992 12.2974 1.86785L17.1976 15.9991L22.7911 31.8007L28.3946 47.5908C30.2509 52.8585 32.1994 58.0916 34.1018 63.3463L39.8293 79.0902C41.7201 84.3464 43.7206 89.5665 45.6533 94.7996C47.6263 100.031 49.5446 105.276 51.5479 110.486C53.5512 115.696 55.5156 120.939 57.5563 126.136C57.5434 126.111 57.5355 126.084 57.5333 126.056L20.2804 22.5076L19.0266 19.004L12.5064 0.893554C12.5641 0.626927 12.6116 0.36031 12.6693 0.0936832L12.2283 0.128276L12.1821 0L12.1591 0.144131L11.7065 0.178724L11.9847 0.990117L11.0104 5.96814L7.19262 25.3512C7.1906 25.4057 7.18287 25.4597 7.16956 25.5126Z" fill="white"/>
</g>
</g>
<g style="mix-blend-mode:multiply" opacity="0.2">
<g style="mix-blend-mode:multiply" opacity="0.2">
<path d="M11.5556 68.569L61.108 136C59.1926 133.156 57.2325 130.337 55.284 127.518C53.3353 124.699 51.3509 121.897 49.375 119.107L43.4241 110.719L37.4141 102.377C33.3873 96.843 29.3504 91.2972 25.266 85.8032L19.1407 77.5551C17.0755 74.8167 15.0333 72.0669 12.9435 69.3401L12.932 69.317L12.9205 69.3055C12.2123 68.4465 11.5541 67.5476 10.9489 66.6133C10.3335 65.6621 9.75266 64.6993 9.21941 63.702C8.68616 62.7047 8.18605 61.6944 7.72197 60.6625L7.07342 59.0958C6.85291 58.5741 6.67853 58.0394 6.48108 57.5105C6.28363 56.9816 6.09915 56.4425 5.93629 55.8978C5.77343 55.353 5.58752 54.8197 5.44916 54.2735L5.04273 52.6146C4.90157 52.0641 4.78901 51.5065 4.70548 50.9443C4.61324 50.3865 4.47344 49.8302 4.41724 49.2623L4.21979 47.5675C4.09296 46.5701 4.07567 45.5728 4.01225 44.5625C3.79592 53.1797 6.44943 61.6243 11.5556 68.569Z" fill="black"/>
</g>
</g>
</g>
<defs>
<filter id="filter0_d_660_307" x="0" y="0" width="122.214" height="144" filterUnits="userSpaceOnUse" color-interpolation-filters="sRGB">
<feFlood flood-opacity="0" result="BackgroundImageFix"/>
<feColorMatrix in="SourceAlpha" type="matrix" values="0 0 0 0 0 0 0 0 0 0 0 0 0 0 0 0 0 0 127 0" result="hardAlpha"/>
<feOffset dy="4"/>
<feGaussianBlur stdDeviation="2"/>
<feComposite in2="hardAlpha" operator="out"/>
<feColorMatrix type="matrix" values="0 0 0 0 0 0 0 0 0 0 0 0 0 0 0 0 0 0 0.25 0"/>
<feBlend mode="normal" in2="BackgroundImageFix" result="effect1_dropShadow_660_307"/>
<feBlend mode="normal" in="SourceGraphic" in2="effect1_dropShadow_660_307" result="shape"/>
</filter>
<linearGradient id="paint0_linear_660_307" x1="-146.754" y1="662.255" x2="-146.754" y2="572.258" gradientUnits="userSpaceOnUse">
<stop stop-color="#F0D4CC"/>
<stop offset="1" stop-color="#FFFCFF"/>
</linearGradient>
<linearGradient id="paint1_linear_660_307" x1="-118.27" y1="530.395" x2="-118.27" y2="664.625" gradientUnits="userSpaceOnUse">
<stop stop-color="#FCC400"/>
<stop offset="0.162" stop-color="#FBC000"/>
<stop offset="0.307" stop-color="#FBB500"/>
<stop offset="0.446" stop-color="#FBA300"/>
<stop offset="0.581" stop-color="#FA8900"/>
<stop offset="0.712" stop-color="#FA6800"/>
<stop offset="0.842" stop-color="#F93F00"/>
<stop offset="0.967" stop-color="#F81000"/>
<stop offset="1" stop-color="#F80300"/>
</linearGradient>
<linearGradient id="paint2_linear_660_307" x1="-2917.93" y1="530.401" x2="-2917.93" y2="664.632" gradientUnits="userSpaceOnUse">
<stop stop-color="#FCC400"/>
<stop offset="0.162" stop-color="#FBC000"/>
<stop offset="0.307" stop-color="#FBB500"/>
<stop offset="0.446" stop-color="#FBA300"/>
<stop offset="0.581" stop-color="#FA8900"/>
<stop offset="0.712" stop-color="#FA6800"/>
<stop offset="0.842" stop-color="#F93F00"/>
<stop offset="0.967" stop-color="#F81000"/>
<stop offset="1" stop-color="#F80300"/>
</linearGradient>
</defs>
</svg>
