<svg width="422" height="144" viewBox="0 0 422 144" fill="none" xmlns="http://www.w3.org/2000/svg">
<path d="M185.655 65.536V69.92H176.503V74.656H183.351V78.912H176.503V88H171.031V65.536H185.655ZM205.363 78.784C205.363 79.296 205.331 79.8293 205.267 80.384H192.883C192.968 81.4933 193.32 82.3467 193.939 82.944C194.579 83.52 195.358 83.808 196.275 83.808C197.64 83.808 198.59 83.232 199.123 82.08H204.947C204.648 83.2533 204.104 84.3093 203.315 85.248C202.547 86.1867 201.576 86.9227 200.403 87.456C199.23 87.9893 197.918 88.256 196.467 88.256C194.718 88.256 193.16 87.8827 191.795 87.136C190.43 86.3893 189.363 85.3227 188.595 83.936C187.827 82.5493 187.443 80.928 187.443 79.072C187.443 77.216 187.816 75.5947 188.563 74.208C189.331 72.8213 190.398 71.7547 191.763 71.008C193.128 70.2613 194.696 69.888 196.467 69.888C198.195 69.888 199.731 70.2507 201.075 70.976C202.419 71.7013 203.464 72.736 204.211 74.08C204.979 75.424 205.363 76.992 205.363 78.784ZM199.763 77.344C199.763 76.4053 199.443 75.6587 198.803 75.104C198.163 74.5493 197.363 74.272 196.403 74.272C195.486 74.272 194.707 74.5387 194.067 75.072C193.448 75.6053 193.064 76.3627 192.915 77.344H199.763ZM219.13 69.952C221.22 69.952 222.884 70.6347 224.122 72C225.38 73.344 226.01 75.2 226.01 77.568V88H220.57V78.304C220.57 77.1093 220.26 76.1813 219.642 75.52C219.023 74.8587 218.191 74.528 217.146 74.528C216.1 74.528 215.268 74.8587 214.65 75.52C214.031 76.1813 213.722 77.1093 213.722 78.304V88H208.25V70.144H213.722V72.512C214.276 71.7227 215.023 71.104 215.962 70.656C216.9 70.1867 217.956 69.952 219.13 69.952ZM246.644 78.784C246.644 79.296 246.612 79.8293 246.548 80.384H234.164C234.249 81.4933 234.601 82.3467 235.22 82.944C235.86 83.52 236.639 83.808 237.556 83.808C238.921 83.808 239.871 83.232 240.404 82.08H246.228C245.929 83.2533 245.385 84.3093 244.596 85.248C243.828 86.1867 242.857 86.9227 241.684 87.456C240.511 87.9893 239.199 88.256 237.748 88.256C235.999 88.256 234.441 87.8827 233.076 87.136C231.711 86.3893 230.644 85.3227 229.876 83.936C229.108 82.5493 228.724 80.928 228.724 79.072C228.724 77.216 229.097 75.5947 229.844 74.208C230.612 72.8213 231.679 71.7547 233.044 71.008C234.409 70.2613 235.977 69.888 237.748 69.888C239.476 69.888 241.012 70.2507 242.356 70.976C243.7 71.7013 244.745 72.736 245.492 74.08C246.26 75.424 246.644 76.992 246.644 78.784ZM241.044 77.344C241.044 76.4053 240.724 75.6587 240.084 75.104C239.444 74.5493 238.644 74.272 237.684 74.272C236.767 74.272 235.988 74.5387 235.348 75.072C234.729 75.6053 234.345 76.3627 234.196 77.344H241.044ZM248.443 79.072C248.443 77.216 248.816 75.5947 249.563 74.208C250.331 72.8213 251.387 71.7547 252.731 71.008C254.096 70.2613 255.654 69.888 257.403 69.888C259.643 69.888 261.51 70.4747 263.003 71.648C264.518 72.8213 265.51 74.4747 265.979 76.608H260.155C259.664 75.2427 258.715 74.56 257.307 74.56C256.304 74.56 255.504 74.9547 254.907 75.744C254.31 76.512 254.011 77.6213 254.011 79.072C254.011 80.5227 254.31 81.6427 254.907 82.432C255.504 83.2 256.304 83.584 257.307 83.584C258.715 83.584 259.664 82.9013 260.155 81.536H265.979C265.51 83.6267 264.518 85.2693 263.003 86.464C261.488 87.6587 259.622 88.256 257.403 88.256C255.654 88.256 254.096 87.8827 252.731 87.136C251.387 86.3893 250.331 85.3227 249.563 83.936C248.816 82.5493 248.443 80.928 248.443 79.072ZM277.034 88.256C275.285 88.256 273.706 87.8827 272.298 87.136C270.911 86.3893 269.813 85.3227 269.002 83.936C268.213 82.5493 267.818 80.928 267.818 79.072C267.818 77.2373 268.223 75.6267 269.034 74.24C269.845 72.832 270.954 71.7547 272.362 71.008C273.77 70.2613 275.349 69.888 277.098 69.888C278.847 69.888 280.426 70.2613 281.834 71.008C283.242 71.7547 284.351 72.832 285.162 74.24C285.973 75.6267 286.378 77.2373 286.378 79.072C286.378 80.9067 285.962 82.528 285.13 83.936C284.319 85.3227 283.199 86.3893 281.77 87.136C280.362 87.8827 278.783 88.256 277.034 88.256ZM277.034 83.52C278.079 83.52 278.965 83.136 279.69 82.368C280.437 81.6 280.81 80.5013 280.81 79.072C280.81 77.6427 280.447 76.544 279.722 75.776C279.018 75.008 278.143 74.624 277.098 74.624C276.031 74.624 275.146 75.008 274.442 75.776C273.738 76.5227 273.386 77.6213 273.386 79.072C273.386 80.5013 273.727 81.6 274.41 82.368C275.114 83.136 275.989 83.52 277.034 83.52ZM310.868 65.536V66.752H304.468V88H303.028V66.752H296.628V65.536H310.868ZM313.4 79.296C313.4 77.504 313.752 75.936 314.456 74.592C315.181 73.248 316.173 72.2133 317.432 71.488C318.712 70.7627 320.163 70.4 321.784 70.4C323.619 70.4 325.176 70.848 326.456 71.744C327.736 72.64 328.632 73.7813 329.144 75.168V70.624H330.584V88H329.144V83.424C328.632 84.832 327.725 85.9947 326.424 86.912C325.144 87.808 323.597 88.256 321.784 88.256C320.163 88.256 318.712 87.8933 317.432 87.168C316.173 86.4213 315.181 85.376 314.456 84.032C313.752 82.6667 313.4 81.088 313.4 79.296ZM329.144 79.296C329.144 77.7813 328.824 76.448 328.184 75.296C327.565 74.1227 326.712 73.2267 325.624 72.608C324.536 71.968 323.32 71.648 321.976 71.648C320.568 71.648 319.331 71.9573 318.264 72.576C317.197 73.1733 316.365 74.048 315.768 75.2C315.171 76.352 314.872 77.7173 314.872 79.296C314.872 80.8747 315.171 82.24 315.768 83.392C316.365 84.544 317.197 85.4293 318.264 86.048C319.352 86.6667 320.589 86.976 321.976 86.976C323.32 86.976 324.536 86.6667 325.624 86.048C326.733 85.408 327.597 84.512 328.216 83.36C328.835 82.1867 329.144 80.832 329.144 79.296ZM337.267 64.32V88H335.827V64.32H337.267ZM358.194 78.144C358.194 78.912 358.173 79.488 358.13 79.872H343.122C343.165 81.4293 343.506 82.7413 344.146 83.808C344.786 84.8747 345.629 85.6747 346.674 86.208C347.719 86.7413 348.861 87.008 350.098 87.008C351.805 87.008 353.234 86.592 354.386 85.76C355.538 84.9067 356.263 83.7547 356.562 82.304H358.066C357.725 84.0747 356.85 85.5147 355.442 86.624C354.034 87.712 352.253 88.256 350.098 88.256C348.477 88.256 347.026 87.8933 345.746 87.168C344.466 86.4427 343.463 85.408 342.738 84.064C342.013 82.6987 341.65 81.1093 341.65 79.296C341.65 77.4827 342.002 75.904 342.706 74.56C343.431 73.216 344.434 72.192 345.714 71.488C346.994 70.7627 348.455 70.4 350.098 70.4C351.762 70.4 353.202 70.7627 354.418 71.488C355.655 72.192 356.594 73.1413 357.234 74.336C357.874 75.5093 358.194 76.7787 358.194 78.144ZM356.754 78.688C356.818 77.152 356.541 75.8507 355.922 74.784C355.325 73.7173 354.503 72.928 353.458 72.416C352.413 71.8827 351.282 71.616 350.066 71.616C348.85 71.616 347.719 71.8827 346.674 72.416C345.65 72.928 344.807 73.7173 344.146 74.784C343.506 75.8507 343.165 77.152 343.122 78.688H356.754ZM370.386 70.272C372.455 70.272 374.141 70.912 375.442 72.192C376.743 73.4507 377.394 75.328 377.394 77.824V88H375.986V77.92C375.986 75.8507 375.463 74.272 374.418 73.184C373.373 72.0747 371.954 71.52 370.162 71.52C368.285 71.52 366.781 72.1173 365.65 73.312C364.541 74.5067 363.986 76.2773 363.986 78.624V88H362.546V70.624H363.986V74.304C364.477 73.0027 365.287 72.0107 366.418 71.328C367.57 70.624 368.893 70.272 370.386 70.272ZM384.627 71.872V83.36C384.627 84.64 384.862 85.5253 385.331 86.016C385.801 86.4853 386.633 86.72 387.827 86.72H389.779V88H387.603C386.089 88 384.969 87.648 384.243 86.944C383.539 86.2187 383.187 85.024 383.187 83.36V71.872H380.563V70.624H383.187V66.208H384.627V70.624H389.779V71.872H384.627Z" fill="white"/>
<g filter="url(#filter0_d_408_309)">
<path d="M101.93 22.5075L61.1026 135.998L20.287 22.519C25.2552 28.5332 31.4909 33.3751 38.5483 36.6985C45.6058 40.022 53.3103 41.7447 61.111 41.7437C68.9118 41.7425 76.6159 40.0175 83.6725 36.6922C90.7289 33.3667 96.9633 28.523 101.93 22.5075Z" fill="url(#paint0_linear_408_309)"/>
<g style="mix-blend-mode:multiply" opacity="0.08">
<g style="mix-blend-mode:multiply" opacity="0.08">
<path d="M101.93 22.5075L61.1026 135.998L20.287 22.519C25.2474 28.54 31.4804 33.3869 38.5378 36.7109C45.5952 40.0351 53.3015 41.7538 61.1026 41.7435C46.3329 41.7435 38.187 39.9694 33.7452 38.2169L61.1026 127.958L89.0508 37.9733C84.7589 39.795 76.5439 41.7435 61.1026 41.7435C68.9064 41.7529 76.6152 40.0328 83.6746 36.7066C90.7339 33.3805 96.9685 28.5312 101.93 22.5075Z" fill="black"/>
</g>
</g>
<path d="M110.653 68.5693L61.1017 135.999L64.6514 126.136C64.6644 126.111 64.6722 126.084 64.6745 126.056L101.929 22.5077L103.181 19.004L109.701 0.893554L109.979 0.128276L110.027 0L110.05 0.144131L110.224 0.990118L111.199 5.96814L115.015 25.3555C115.017 25.41 115.025 25.464 115.038 25.5169L117.488 37.9432C117.919 40.122 118.156 42.3349 118.196 44.5555C118.414 53.1751 115.76 61.6226 110.653 68.5693Z" fill="url(#paint1_linear_408_309)"/>
<g style="mix-blend-mode:screen" opacity="0.25">
<g style="mix-blend-mode:screen" opacity="0.25">
<path d="M114.098 32.7173L68.6877 121.751L104.109 23.296L105.361 19.7809L109.363 8.68344L114.098 32.7173Z" fill="white"/>
</g>
</g>
<g style="mix-blend-mode:screen" opacity="0.3">
<g style="mix-blend-mode:screen" opacity="0.3">
<path d="M115.038 25.5126C114.087 21.2898 113.164 17.0555 112.254 12.8082C111.454 9.16619 110.668 5.5228 109.91 1.86785L105.01 15.9991L99.418 31.8007L93.8145 47.5908C91.9582 52.8585 90.0082 58.0916 88.1058 63.3463L82.3783 79.0902C80.4873 84.3464 78.4869 89.5665 76.5542 94.7996C74.5826 100.031 72.663 105.276 70.6612 110.486C68.6593 115.696 66.6935 120.939 64.6512 126.136C64.6641 126.111 64.672 126.084 64.6743 126.056L101.929 22.5076L103.181 19.004L109.701 0.893554C109.643 0.626927 109.597 0.36031 109.54 0.0936832L109.979 0.128276L110.027 0L110.05 0.144131L110.502 0.178724L110.224 0.990117L111.199 5.96814L115.015 25.3555C115.017 25.4086 115.025 25.4612 115.038 25.5126Z" fill="white"/>
</g>
</g>
<g style="mix-blend-mode:multiply" opacity="0.2">
<g style="mix-blend-mode:multiply" opacity="0.2">
<path d="M110.653 68.5691L61.1017 135.998C63.0156 133.155 64.9757 130.336 66.9257 127.517C68.8757 124.698 70.8588 121.896 72.8347 119.106L78.787 110.718L84.7969 102.376C88.8223 96.8417 92.8678 91.2958 96.9436 85.8019L103.07 77.5537C105.134 74.8154 107.176 72.0655 109.268 69.3387L109.279 69.3157L109.291 69.3042C109.999 68.4449 110.657 67.546 111.264 66.6119C111.879 65.6607 112.458 64.698 112.993 63.7007C113.528 62.7033 114.026 61.693 114.491 60.6611L115.141 59.0945C115.361 58.5728 115.534 58.0382 115.731 57.5093C115.929 56.9804 116.115 56.4412 116.278 55.8964C116.44 55.3516 116.625 54.8185 116.765 54.2723L117.17 52.6134C117.311 52.0627 117.423 51.5053 117.507 50.9431C117.599 50.3853 117.739 49.8288 117.795 49.261L117.993 47.5661C118.121 46.5688 118.144 45.5715 118.202 44.5612C118.417 53.1796 115.761 61.6247 110.653 68.5691Z" fill="black"/>
</g>
</g>
<path d="M11.5559 68.5693L61.1082 136L57.557 126.138C57.5441 126.113 57.5361 126.085 57.534 126.057L20.2811 22.5077L19.0273 19.004L12.5071 0.893554L12.2289 0.128276L12.1828 0L12.1597 0.144131L11.9853 0.990118L11.0111 5.96814L7.19328 25.3512C7.19126 25.4057 7.18352 25.4597 7.17021 25.5126L4.72012 37.9389C4.29007 40.1179 4.05375 42.3306 4.01393 44.5512C3.7946 53.1721 6.44772 61.6213 11.5559 68.5693Z" fill="url(#paint2_linear_408_309)"/>
<g style="mix-blend-mode:screen" opacity="0.25">
<g style="mix-blend-mode:screen" opacity="0.25">
<path d="M8.10974 32.7173L53.5199 121.751L18.0989 23.2975L16.8465 19.7823L12.8442 8.68484L8.10974 32.7173Z" fill="white"/>
</g>
</g>
<g style="mix-blend-mode:screen" opacity="0.3">
<g style="mix-blend-mode:screen" opacity="0.3">
<path d="M7.16962 25.5126C8.12083 21.2898 9.0432 17.0555 9.95405 12.8082C10.7554 9.16668 11.5365 5.51992 12.2975 1.86785L17.1977 15.9991L22.7911 31.8007L28.3946 47.5908C30.2509 52.8585 32.1995 58.0916 34.1019 63.3463L39.8293 79.0902C41.7202 84.3464 43.7206 89.5665 45.6533 94.7996C47.6264 100.031 49.5446 105.276 51.5479 110.486C53.5512 115.696 55.5156 120.939 57.5564 126.136C57.5434 126.111 57.5355 126.084 57.5334 126.056L20.2805 22.5076L19.0266 19.004L12.5065 0.893554C12.5641 0.626927 12.6117 0.36031 12.6693 0.0936832L12.2283 0.128276L12.1822 0L12.1591 0.144131L11.7066 0.178724L11.9848 0.990117L11.0105 5.96814L7.19268 25.3512C7.19066 25.4057 7.18293 25.4597 7.16962 25.5126Z" fill="white"/>
</g>
</g>
<g style="mix-blend-mode:multiply" opacity="0.2">
<g style="mix-blend-mode:multiply" opacity="0.2">
<path d="M11.5556 68.5692L61.108 136C59.1926 133.156 57.2325 130.337 55.284 127.518C53.3353 124.699 51.3509 121.898 49.375 119.107L43.4241 110.719L37.4141 102.378C33.3873 96.8433 29.3504 91.2974 25.266 85.8034L19.1407 77.5553C17.0755 74.817 15.0333 72.0671 12.9435 69.3403L12.932 69.3172L12.9205 69.3057C12.2123 68.4467 11.5541 67.5478 10.9489 66.6135C10.3335 65.6623 9.75266 64.6995 9.21941 63.7022C8.68616 62.7049 8.18605 61.6946 7.72197 60.6627L7.07342 59.0961C6.85291 58.5743 6.67853 58.0396 6.48108 57.5107C6.28363 56.9818 6.09915 56.4428 5.93629 55.898C5.77343 55.3532 5.58752 54.8199 5.44916 54.2737L5.04273 52.6149C4.90157 52.0643 4.78901 51.5067 4.70548 50.9445C4.61324 50.3867 4.47344 49.8304 4.41724 49.2626L4.21979 47.5677C4.09296 46.5703 4.07567 45.573 4.01225 44.5627C3.79592 53.18 6.44943 61.6245 11.5556 68.5692Z" fill="black"/>
</g>
</g>
</g>
<defs>
<filter id="filter0_d_408_309" x="0" y="0" width="122.214" height="144" filterUnits="userSpaceOnUse" color-interpolation-filters="sRGB">
<feFlood flood-opacity="0" result="BackgroundImageFix"/>
<feColorMatrix in="SourceAlpha" type="matrix" values="0 0 0 0 0 0 0 0 0 0 0 0 0 0 0 0 0 0 127 0" result="hardAlpha"/>
<feOffset dy="4"/>
<feGaussianBlur stdDeviation="2"/>
<feComposite in2="hardAlpha" operator="out"/>
<feColorMatrix type="matrix" values="0 0 0 0 0 0 0 0 0 0 0 0 0 0 0 0 0 0 0.25 0"/>
<feBlend mode="normal" in2="BackgroundImageFix" result="effect1_dropShadow_408_309"/>
<feBlend mode="normal" in="SourceGraphic" in2="effect1_dropShadow_408_309" result="shape"/>
</filter>
<linearGradient id="paint0_linear_408_309" x1="-146.754" y1="662.256" x2="-146.754" y2="572.258" gradientUnits="userSpaceOnUse">
<stop stop-color="#F0D4CC"/>
<stop offset="1" stop-color="#FFFCFF"/>
</linearGradient>
<linearGradient id="paint1_linear_408_309" x1="-118.27" y1="530.395" x2="-118.27" y2="664.625" gradientUnits="userSpaceOnUse">
<stop stop-color="#FCC400"/>
<stop offset="0.162" stop-color="#FBC000"/>
<stop offset="0.307" stop-color="#FBB500"/>
<stop offset="0.446" stop-color="#FBA300"/>
<stop offset="0.581" stop-color="#FA8900"/>
<stop offset="0.712" stop-color="#FA6800"/>
<stop offset="0.842" stop-color="#F93F00"/>
<stop offset="0.967" stop-color="#F81000"/>
<stop offset="1" stop-color="#F80300"/>
</linearGradient>
<linearGradient id="paint2_linear_408_309" x1="-2917.93" y1="530.401" x2="-2917.93" y2="664.632" gradientUnits="userSpaceOnUse">
<stop stop-color="#FCC400"/>
<stop offset="0.162" stop-color="#FBC000"/>
<stop offset="0.307" stop-color="#FBB500"/>
<stop offset="0.446" stop-color="#FBA300"/>
<stop offset="0.581" stop-color="#FA8900"/>
<stop offset="0.712" stop-color="#FA6800"/>
<stop offset="0.842" stop-color="#F93F00"/>
<stop offset="0.967" stop-color="#F81000"/>
<stop offset="1" stop-color="#F80300"/>
</linearGradient>
</defs>
</svg>
