<svg width="228" height="213" viewBox="0 0 228 213" fill="none" xmlns="http://www.w3.org/2000/svg">
<path d="M19.3616 171.48V175.864H10.2096V180.6H17.0576V184.856H10.2096V193.944H4.73764V171.48H19.3616ZM39.0696 184.728C39.0696 185.24 39.0376 185.773 38.9736 186.328H26.5896C26.675 187.437 27.027 188.29 27.6456 188.888C28.2856 189.464 29.0643 189.752 29.9816 189.752C31.347 189.752 32.2963 189.176 32.8296 188.024H38.6536C38.355 189.197 37.811 190.253 37.0216 191.192C36.2536 192.13 35.283 192.866 34.1096 193.4C32.9363 193.933 31.6243 194.2 30.1736 194.2C28.4243 194.2 26.867 193.826 25.5016 193.08C24.1363 192.333 23.0696 191.266 22.3016 189.88C21.5336 188.493 21.1496 186.872 21.1496 185.016C21.1496 183.16 21.523 181.538 22.2696 180.152C23.0376 178.765 24.1043 177.698 25.4696 176.952C26.835 176.205 28.403 175.832 30.1736 175.832C31.9016 175.832 33.4376 176.194 34.7816 176.92C36.1256 177.645 37.171 178.68 37.9176 180.024C38.6856 181.368 39.0696 182.936 39.0696 184.728ZM33.4696 183.288C33.4696 182.349 33.1496 181.602 32.5096 181.048C31.8696 180.493 31.0696 180.216 30.1096 180.216C29.1923 180.216 28.4136 180.482 27.7736 181.016C27.155 181.549 26.771 182.306 26.6216 183.288H33.4696ZM52.8364 175.896C54.9271 175.896 56.5911 176.578 57.8284 177.944C59.0871 179.288 59.7164 181.144 59.7164 183.512V193.944H54.2764V184.248C54.2764 183.053 53.9671 182.125 53.3484 181.464C52.7297 180.802 51.8977 180.472 50.8524 180.472C49.8071 180.472 48.9751 180.802 48.3564 181.464C47.7377 182.125 47.4284 183.053 47.4284 184.248V193.944H41.9564V176.088H47.4284V178.456C47.9831 177.666 48.7297 177.048 49.6684 176.6C50.6071 176.13 51.6631 175.896 52.8364 175.896ZM80.3509 184.728C80.3509 185.24 80.3189 185.773 80.2549 186.328H67.8709C67.9562 187.437 68.3082 188.29 68.9269 188.888C69.5669 189.464 70.3456 189.752 71.2629 189.752C72.6282 189.752 73.5776 189.176 74.1109 188.024H79.9349C79.6362 189.197 79.0922 190.253 78.3029 191.192C77.5349 192.13 76.5642 192.866 75.3909 193.4C74.2176 193.933 72.9056 194.2 71.4549 194.2C69.7056 194.2 68.1482 193.826 66.7829 193.08C65.4176 192.333 64.3509 191.266 63.5829 189.88C62.8149 188.493 62.4309 186.872 62.4309 185.016C62.4309 183.16 62.8042 181.538 63.5509 180.152C64.3189 178.765 65.3856 177.698 66.7509 176.952C68.1162 176.205 69.6842 175.832 71.4549 175.832C73.1829 175.832 74.7189 176.194 76.0629 176.92C77.4069 177.645 78.4522 178.68 79.1989 180.024C79.9669 181.368 80.3509 182.936 80.3509 184.728ZM74.7509 183.288C74.7509 182.349 74.4309 181.602 73.7909 181.048C73.1509 180.493 72.3509 180.216 71.3909 180.216C70.4736 180.216 69.6949 180.482 69.0549 181.016C68.4362 181.549 68.0522 182.306 67.9029 183.288H74.7509ZM82.1496 185.016C82.1496 183.16 82.523 181.538 83.2696 180.152C84.0376 178.765 85.0936 177.698 86.4376 176.952C87.803 176.205 89.3603 175.832 91.1096 175.832C93.3496 175.832 95.2163 176.418 96.7096 177.592C98.2243 178.765 99.2163 180.418 99.6856 182.552H93.8616C93.371 181.186 92.4216 180.504 91.0136 180.504C90.011 180.504 89.211 180.898 88.6136 181.688C88.0163 182.456 87.7176 183.565 87.7176 185.016C87.7176 186.466 88.0163 187.586 88.6136 188.376C89.211 189.144 90.011 189.528 91.0136 189.528C92.4216 189.528 93.371 188.845 93.8616 187.48H99.6856C99.2163 189.57 98.2243 191.213 96.7096 192.408C95.195 193.602 93.3283 194.2 91.1096 194.2C89.3603 194.2 87.803 193.826 86.4376 193.08C85.0936 192.333 84.0376 191.266 83.2696 189.88C82.523 188.493 82.1496 186.872 82.1496 185.016ZM110.741 194.2C108.991 194.2 107.413 193.826 106.005 193.08C104.618 192.333 103.519 191.266 102.709 189.88C101.919 188.493 101.525 186.872 101.525 185.016C101.525 183.181 101.93 181.57 102.741 180.184C103.551 178.776 104.661 177.698 106.069 176.952C107.477 176.205 109.055 175.832 110.805 175.832C112.554 175.832 114.133 176.205 115.541 176.952C116.949 177.698 118.058 178.776 118.869 180.184C119.679 181.57 120.085 183.181 120.085 185.016C120.085 186.85 119.669 188.472 118.837 189.88C118.026 191.266 116.906 192.333 115.477 193.08C114.069 193.826 112.49 194.2 110.741 194.2ZM110.741 189.464C111.786 189.464 112.671 189.08 113.397 188.312C114.143 187.544 114.517 186.445 114.517 185.016C114.517 183.586 114.154 182.488 113.429 181.72C112.725 180.952 111.85 180.568 110.805 180.568C109.738 180.568 108.853 180.952 108.149 181.72C107.445 182.466 107.093 183.565 107.093 185.016C107.093 186.445 107.434 187.544 108.117 188.312C108.821 189.08 109.695 189.464 110.741 189.464ZM144.575 171.48V172.696H138.175V193.944H136.735V172.696H130.335V171.48H144.575ZM147.107 185.24C147.107 183.448 147.459 181.88 148.163 180.536C148.888 179.192 149.88 178.157 151.139 177.432C152.419 176.706 153.869 176.344 155.491 176.344C157.325 176.344 158.883 176.792 160.163 177.688C161.443 178.584 162.339 179.725 162.851 181.112V176.568H164.291V193.944H162.851V189.368C162.339 190.776 161.432 191.938 160.131 192.856C158.851 193.752 157.304 194.2 155.491 194.2C153.869 194.2 152.419 193.837 151.139 193.112C149.88 192.365 148.888 191.32 148.163 189.976C147.459 188.61 147.107 187.032 147.107 185.24ZM162.851 185.24C162.851 183.725 162.531 182.392 161.891 181.24C161.272 180.066 160.419 179.17 159.331 178.552C158.243 177.912 157.027 177.592 155.683 177.592C154.275 177.592 153.037 177.901 151.971 178.52C150.904 179.117 150.072 179.992 149.475 181.144C148.877 182.296 148.579 183.661 148.579 185.24C148.579 186.818 148.877 188.184 149.475 189.336C150.072 190.488 150.904 191.373 151.971 191.992C153.059 192.61 154.296 192.92 155.683 192.92C157.027 192.92 158.243 192.61 159.331 191.992C160.44 191.352 161.304 190.456 161.923 189.304C162.541 188.13 162.851 186.776 162.851 185.24ZM170.974 170.264V193.944H169.534V170.264H170.974ZM191.901 184.088C191.901 184.856 191.879 185.432 191.837 185.816H176.829C176.871 187.373 177.213 188.685 177.853 189.752C178.493 190.818 179.335 191.618 180.381 192.152C181.426 192.685 182.567 192.952 183.805 192.952C185.511 192.952 186.941 192.536 188.093 191.704C189.245 190.85 189.97 189.698 190.269 188.248H191.773C191.431 190.018 190.557 191.458 189.149 192.568C187.741 193.656 185.959 194.2 183.805 194.2C182.183 194.2 180.733 193.837 179.453 193.112C178.173 192.386 177.17 191.352 176.445 190.008C175.719 188.642 175.357 187.053 175.357 185.24C175.357 183.426 175.709 181.848 176.413 180.504C177.138 179.16 178.141 178.136 179.421 177.432C180.701 176.706 182.162 176.344 183.805 176.344C185.469 176.344 186.909 176.706 188.125 177.432C189.362 178.136 190.301 179.085 190.941 180.28C191.581 181.453 191.901 182.722 191.901 184.088ZM190.461 184.632C190.525 183.096 190.247 181.794 189.629 180.728C189.031 179.661 188.21 178.872 187.165 178.36C186.119 177.826 184.989 177.56 183.773 177.56C182.557 177.56 181.426 177.826 180.381 178.36C179.357 178.872 178.514 179.661 177.853 180.728C177.213 181.794 176.871 183.096 176.829 184.632H190.461ZM204.093 176.216C206.162 176.216 207.847 176.856 209.149 178.136C210.45 179.394 211.101 181.272 211.101 183.768V193.944H209.693V183.864C209.693 181.794 209.17 180.216 208.125 179.128C207.079 178.018 205.661 177.464 203.869 177.464C201.991 177.464 200.487 178.061 199.357 179.256C198.247 180.45 197.693 182.221 197.693 184.568V193.944H196.253V176.568H197.693V180.248C198.183 178.946 198.994 177.954 200.125 177.272C201.277 176.568 202.599 176.216 204.093 176.216ZM218.334 177.816V189.304C218.334 190.584 218.569 191.469 219.038 191.96C219.507 192.429 220.339 192.664 221.534 192.664H223.486V193.944H221.31C219.795 193.944 218.675 193.592 217.95 192.888C217.246 192.162 216.894 190.968 216.894 189.304V177.816H214.27V176.568H216.894V172.152H218.334V176.568H223.486V177.816H218.334Z" fill="white"/>
<g filter="url(#filter0_d_554_306)">
<path d="M159.5 25.2479L113.702 152.557L67.9167 25.2609C73.4898 32.0074 80.4848 37.4387 88.4015 41.1669C96.3182 44.895 104.961 46.8274 113.711 46.8263C122.462 46.825 131.104 44.89 139.02 41.1597C146.935 37.4293 153.929 31.9959 159.5 25.2479Z" fill="url(#paint0_linear_554_306)"/>
<g style="mix-blend-mode:multiply" opacity="0.08">
<g style="mix-blend-mode:multiply" opacity="0.08">
<path d="M159.5 25.2479L113.702 152.557L67.9167 25.2609C73.4811 32.015 80.473 37.452 88.3897 41.1808C96.3064 44.9097 104.951 46.8376 113.702 46.8261C97.1339 46.8261 87.9962 44.836 83.0135 42.8701L113.702 143.538L145.053 42.5968C140.239 44.6404 131.023 46.8261 113.702 46.8261C122.456 46.8367 131.103 44.9071 139.022 41.1759C146.941 37.4449 153.935 32.0051 159.5 25.2479Z" fill="black"/>
</g>
</g>
<path d="M169.285 76.9182L113.701 152.558L117.683 141.494C117.697 141.466 117.706 141.435 117.709 141.404L159.499 25.2481L160.904 21.3179L168.218 1.00235L168.53 0.143894L168.583 0L168.609 0.161681L168.805 1.11067L169.898 6.69481L174.179 28.4428C174.181 28.5039 174.19 28.5645 174.205 28.6238L176.953 42.5631C177.437 45.0072 177.702 47.4895 177.747 49.9806C177.991 59.6496 175.014 69.1256 169.285 76.9182Z" fill="url(#paint1_linear_554_306)"/>
<g style="mix-blend-mode:screen" opacity="0.25">
<g style="mix-blend-mode:screen" opacity="0.25">
<path d="M173.15 36.7011L122.211 136.575L161.944 26.1326L163.349 22.1895L167.839 9.74084L173.15 36.7011Z" fill="white"/>
</g>
</g>
<g style="mix-blend-mode:screen" opacity="0.3">
<g style="mix-blend-mode:screen" opacity="0.3">
<path d="M174.204 28.619C173.137 23.882 172.103 19.1321 171.081 14.3677C170.184 10.2823 169.303 6.19525 168.452 2.09527L162.955 17.9471L156.683 35.6727L150.397 53.3854C148.314 59.2944 146.127 65.1647 143.993 71.0592L137.568 88.7202C135.447 94.6163 133.203 100.472 131.035 106.342C128.823 112.211 126.67 118.094 124.424 123.939C122.179 129.783 119.974 135.665 117.683 141.494C117.697 141.466 117.706 141.435 117.709 141.404L159.499 25.2481L160.904 21.3179L168.218 1.00235C168.153 0.70326 168.101 0.404181 168.037 0.10509L168.53 0.143894L168.583 0L168.609 0.161681L169.117 0.200485L168.804 1.11067L169.898 6.69481L174.179 28.4428C174.181 28.5023 174.19 28.5613 174.204 28.619Z" fill="white"/>
</g>
</g>
<g style="mix-blend-mode:multiply" opacity="0.2">
<g style="mix-blend-mode:multiply" opacity="0.2">
<path d="M169.285 76.918L113.701 152.557C115.848 149.368 118.047 146.205 120.234 143.043C122.421 139.881 124.646 136.738 126.863 133.608L133.54 124.199L140.281 114.841C144.797 108.633 149.335 102.412 153.907 96.249L160.78 86.9965C163.095 83.9248 165.386 80.8401 167.731 77.7813L167.744 77.7554L167.757 77.7425C168.552 76.7786 169.291 75.7703 169.971 74.7225C170.661 73.6554 171.311 72.5755 171.911 71.4567C172.51 70.338 173.07 69.2046 173.59 68.0471L174.319 66.2897C174.567 65.7045 174.761 65.1048 174.982 64.5115C175.204 63.9182 175.412 63.3134 175.595 62.7022C175.778 62.0911 175.985 61.4931 176.141 60.8804L176.596 59.0195C176.754 58.4018 176.88 57.7764 176.974 57.1458C177.078 56.5201 177.234 55.8959 177.297 55.2589L177.519 53.3577C177.663 52.2389 177.689 51.1201 177.753 49.9868C177.994 59.6546 175.015 69.128 169.285 76.918Z" fill="black"/>
</g>
</g>
<path d="M58.1225 76.9182L113.708 152.559L109.725 141.496C109.71 141.468 109.701 141.437 109.699 141.405L67.9101 25.2482L66.5036 21.3179L59.1895 1.00235L58.8775 0.143894L58.8257 0L58.7999 0.161681L58.6042 1.11067L57.5113 6.69481L53.2287 28.4379C53.2264 28.499 53.2178 28.5597 53.2028 28.619L50.4544 42.5583C49.972 45.0026 49.7069 47.4847 49.6622 49.9757C49.4162 59.6462 52.3924 69.1242 58.1225 76.9182Z" fill="url(#paint2_linear_554_306)"/>
<g style="mix-blend-mode:screen" opacity="0.25">
<g style="mix-blend-mode:screen" opacity="0.25">
<path d="M54.2568 36.7009L105.196 136.575L65.4622 26.1341L64.0573 22.191L59.5677 9.74231L54.2568 36.7009Z" fill="white"/>
</g>
</g>
<g style="mix-blend-mode:screen" opacity="0.3">
<g style="mix-blend-mode:screen" opacity="0.3">
<path d="M53.2021 28.619C54.2692 23.882 55.3038 19.1321 56.3256 14.3677C57.2245 10.2828 58.1008 6.19201 58.9544 2.09527L64.4512 17.9471L70.7257 35.6727L77.0115 53.3854C79.0938 59.2944 81.2796 65.1647 83.4136 71.0592L89.8384 88.7202C91.9596 94.6163 94.2035 100.472 96.3716 106.342C98.5848 112.211 100.737 118.094 102.984 123.939C105.231 129.783 107.435 135.665 109.724 141.494C109.709 141.466 109.701 141.435 109.698 141.404L67.9094 25.2481L66.5028 21.3179L59.1888 1.00235C59.2535 0.70326 59.3068 0.404181 59.3715 0.10509L58.8768 0.143894L58.825 0L58.7992 0.161681L58.2915 0.200485L58.6036 1.11067L57.5107 6.69481L53.228 28.4379C53.2257 28.499 53.2171 28.5597 53.2021 28.619Z" fill="white"/>
</g>
</g>
<g style="mix-blend-mode:multiply" opacity="0.2">
<g style="mix-blend-mode:multiply" opacity="0.2">
<path d="M58.1222 76.9182L113.708 152.559C111.559 149.369 109.361 146.207 107.175 143.045C104.989 139.883 102.763 136.74 100.546 133.61L93.871 124.2L87.1291 114.843C82.6121 108.635 78.0837 102.414 73.5019 96.2508L66.6309 86.9984C64.3142 83.9266 62.0233 80.8419 59.6791 77.7831L59.6662 77.7572L59.6532 77.7443C58.8589 76.7808 58.1205 75.7724 57.4416 74.7243C56.7513 73.6573 56.0997 72.5773 55.5015 71.4585C54.9034 70.3398 54.3424 69.2065 53.8218 68.0489L53.0943 66.2915C52.8469 65.7063 52.6513 65.1065 52.4298 64.5132C52.2083 63.9198 52.0014 63.3152 51.8187 62.7041C51.636 62.0929 51.4274 61.4948 51.2722 60.882L50.8163 59.0212C50.658 58.4036 50.5317 57.7781 50.438 57.1474C50.3345 56.5218 50.1777 55.8977 50.1147 55.2607L49.8932 53.3595C49.7509 52.2407 49.7315 51.122 49.6604 49.9886C49.4177 59.6551 52.3943 69.1279 58.1222 76.9182Z" fill="black"/>
</g>
</g>
</g>
<defs>
<filter id="filter0_d_554_306" x="45.6466" y="0" width="136.12" height="160.559" filterUnits="userSpaceOnUse" color-interpolation-filters="sRGB">
<feFlood flood-opacity="0" result="BackgroundImageFix"/>
<feColorMatrix in="SourceAlpha" type="matrix" values="0 0 0 0 0 0 0 0 0 0 0 0 0 0 0 0 0 0 127 0" result="hardAlpha"/>
<feOffset dy="4"/>
<feGaussianBlur stdDeviation="2"/>
<feComposite in2="hardAlpha" operator="out"/>
<feColorMatrix type="matrix" values="0 0 0 0 0 0 0 0 0 0 0 0 0 0 0 0 0 0 0.25 0"/>
<feBlend mode="normal" in2="BackgroundImageFix" result="effect1_dropShadow_554_306"/>
<feBlend mode="normal" in="SourceGraphic" in2="effect1_dropShadow_554_306" result="shape"/>
</filter>
<linearGradient id="paint0_linear_554_306" x1="-119.463" y1="742.891" x2="-119.463" y2="641.935" gradientUnits="userSpaceOnUse">
<stop stop-color="#F0D4CC"/>
<stop offset="1" stop-color="#FFFCFF"/>
</linearGradient>
<linearGradient id="paint1_linear_554_306" x1="-87.5111" y1="594.975" x2="-87.5111" y2="745.549" gradientUnits="userSpaceOnUse">
<stop stop-color="#FCC400"/>
<stop offset="0.162" stop-color="#FBC000"/>
<stop offset="0.307" stop-color="#FBB500"/>
<stop offset="0.446" stop-color="#FBA300"/>
<stop offset="0.581" stop-color="#FA8900"/>
<stop offset="0.712" stop-color="#FA6800"/>
<stop offset="0.842" stop-color="#F93F00"/>
<stop offset="0.967" stop-color="#F81000"/>
<stop offset="1" stop-color="#F80300"/>
</linearGradient>
<linearGradient id="paint2_linear_554_306" x1="-3228.05" y1="594.981" x2="-3228.05" y2="745.557" gradientUnits="userSpaceOnUse">
<stop stop-color="#FCC400"/>
<stop offset="0.162" stop-color="#FBC000"/>
<stop offset="0.307" stop-color="#FBB500"/>
<stop offset="0.446" stop-color="#FBA300"/>
<stop offset="0.581" stop-color="#FA8900"/>
<stop offset="0.712" stop-color="#FA6800"/>
<stop offset="0.842" stop-color="#F93F00"/>
<stop offset="0.967" stop-color="#F81000"/>
<stop offset="1" stop-color="#F80300"/>
</linearGradient>
</defs>
</svg>
